<svg width="60" height="60" viewBox="0 0 24 24" fill="none" xmlns="http://www.w3.org/2000/svg">
<path fill-rule="evenodd" clip-rule="evenodd" d="M9.43833 4.48148C9.80081 4.17078 10.2625 4 10.7399 4H13.2602C13.7376 4 14.1993 4.17079 14.5618 4.4815L15.7517 5.50147C17.1615 5.50936 17.9575 5.55975 18.589 5.88148C19.2475 6.21703 19.783 6.75247 20.1185 7.41103C20.5 8.15972 20.5 9.13982 20.5 11.1V12.9C20.5 14.8602 20.5 15.8403 20.1185 16.589C19.783 17.2475 19.2475 17.783 18.589 18.1185C17.8403 18.5 16.8602 18.5 14.9 18.5H9.1C7.13982 18.5 6.15972 18.5 5.41103 18.1185C4.75247 17.783 4.21703 17.2475 3.88148 16.589C3.5 15.8403 3.5 14.8602 3.5 12.9V11.1C3.5 9.13982 3.5 8.15972 3.88148 7.41103C4.21703 6.75247 4.75247 6.21703 5.41103 5.88148C6.04248 5.55974 6.83852 5.50936 8.24832 5.50147L9.43833 4.48148ZM9.35 11.75C9.35 10.2864 10.5364 9.1 12 9.1C13.4636 9.1 14.65 10.2864 14.65 11.75C14.65 13.2136 13.4636 14.4 12 14.4C10.5364 14.4 9.35 13.2136 9.35 11.75ZM12 7.9C9.8737 7.9 8.15 9.6237 8.15 11.75C8.15 13.8763 9.8737 15.6 12 15.6C14.1263 15.6 15.85 13.8763 15.85 11.75C15.85 9.6237 14.1263 7.9 12 7.9Z" fill="black"/>
</svg>
