<svg width="24" height="24" viewBox="0 0 24 24" fill="none" xmlns="http://www.w3.org/2000/svg">
<path fill-rule="evenodd" clip-rule="evenodd" d="M7.99995 12C7.99995 12.9112 7.26122 13.65 6.34995 13.65C5.43868 13.65 4.69995 12.9112 4.69995 12C4.69995 11.0887 5.43868 10.35 6.34995 10.35C7.26122 10.35 7.99995 11.0887 7.99995 12ZM13.6499 12C13.6499 12.9112 12.9112 13.65 11.9999 13.65C11.0886 13.65 10.3499 12.9112 10.3499 12C10.3499 11.0887 11.0886 10.35 11.9999 10.35C12.9112 10.35 13.6499 11.0887 13.6499 12ZM17.6499 13.65C18.5612 13.65 19.2999 12.9112 19.2999 12C19.2999 11.0887 18.5612 10.35 17.6499 10.35C16.7387 10.35 15.9999 11.0887 15.9999 12C15.9999 12.9112 16.7387 13.65 17.6499 13.65Z" fill="black"/>
</svg>
