<svg width="60" height="60" viewBox="0 0 24 24" fill="none" xmlns="http://www.w3.org/2000/svg">
<path fill-rule="evenodd" clip-rule="evenodd" d="M12.0001 0.299988C9.40432 0.299988 7.30006 2.40425 7.30006 4.99999V5.99999H5.50005C3.4566 5.99999 1.80005 7.65653 1.80005 9.69999V16.7C1.80005 18.7434 3.4566 20.4 5.50005 20.4H6.55005V23.2C6.55005 23.4641 6.69866 23.7057 6.93435 23.8248C7.17004 23.9439 7.45269 23.9202 7.66529 23.7635L12.1502 20.4589C12.2021 20.4206 12.2651 20.4 12.3287 20.4H18.5C20.5435 20.4 22.2001 18.7434 22.2001 16.7V9.69999C22.2001 7.65653 20.5435 5.99999 18.5 5.99999H16.7001V4.99999C16.7001 2.40425 14.5958 0.299988 12.0001 0.299988ZM15.3001 5.99999V4.99999C15.3001 3.17745 13.8226 1.69999 12.0001 1.69999C10.1775 1.69999 8.70006 3.17745 8.70006 4.99999V5.99999H15.3001ZM3.20005 9.69999C3.20005 8.42973 4.22979 7.39999 5.50005 7.39999H18.5C19.7703 7.39999 20.8 8.42973 20.8 9.69999V16.7C20.8 17.9702 19.7703 19 18.5 19H12.3287C11.9653 19 11.6115 19.1168 11.3197 19.3318L7.95005 21.8147V19.9C7.95005 19.4029 7.5471 19 7.05005 19H5.50005C4.22979 19 3.20005 17.9702 3.20005 16.7V9.69999ZM7.00005 10.5C6.61345 10.5 6.30005 10.8134 6.30005 11.2C6.30005 11.5866 6.61345 11.9 7.00005 11.9H17C17.3866 11.9 17.7 11.5866 17.7 11.2C17.7 10.8134 17.3866 10.5 17 10.5H7.00005ZM6.30005 15.2C6.30005 14.8134 6.61345 14.5 7.00005 14.5H13.5C13.8866 14.5 14.2 14.8134 14.2 15.2C14.2 15.5866 13.8866 15.9 13.5 15.9H7.00005C6.61345 15.9 6.30005 15.5866 6.30005 15.2Z" fill="black"/>
</svg>
